<?xml version="1.0" encoding="utf-8"?>
<!-- Generator: Adobe Illustrator 23.1.0, SVG Export Plug-In . SVG Version: 6.00 Build 0)  -->
<svg version="1.1" id="Camada_1" xmlns="http://www.w3.org/2000/svg" xmlns:xlink="http://www.w3.org/1999/xlink" x="0px" y="0px"
	 viewBox="0 0 1482 314" style="enable-background:new 0 0 1482 314;" xml:space="preserve">
<style type="text/css">
	.st0{fill:#ECCDB4;}
	.st1{fill:#FFFFFF;}
	.st2{clip-path:url(#SVGID_2_);fill:#FF0000;stroke:#FFFFFF;stroke-miterlimit:10;}
	.st3{clip-path:url(#SVGID_2_);fill:#FFFFFF;stroke:#FFFFFF;stroke-miterlimit:10;}
	.st4{clip-path:url(#SVGID_2_);fill:#006837;stroke:#FFFFFF;stroke-miterlimit:10;}
</style>
<g>
	<g>
		<g>
			<path class="st0" d="M267.49,167.87c-1.92,19.94-18.85,31.84-35.34,33.22c1.4,2.59,2.19,5.64,2.19,8.8v19.74
				c0,4-1.52,7.84-4.16,10.52c-2.64,2.68-6.19,3.98-9.73,3.5c-21.02-2.65-43.42-4-66.56-4c-23.14,0-45.54,1.35-66.56,4
				c-0.47,0.08-0.92,0.08-1.4,0.08c-3.04,0-6.04-1.27-8.33-3.58c-2.64-2.68-4.16-6.51-4.16-10.52v-19.74c0-3.19,0.8-6.23,2.22-8.85
				c-16.51-1.44-33.42-13.2-35.46-33.16c-2.14-21.04,13.84-36.38,30.43-40.77C59.07,93.12,93.89,70.5,120.8,81.16
				c12.49-29.35,53.7-29.35,66.19,0c26.91-10.72,61.85,11.96,50.15,45.94C253.78,131.52,269.56,146.81,267.49,167.87z"/>
		</g>
		<path class="st1" d="M90.69,191.59c-6.93-3.11-12.91-9.8-15.81-17.21c-0.85-2.17,1.83-4.08,2.88-1.9
			c2.72,5.64,6.45,9.97,11.68,12.63c5.47,2.78,10.52,2.13,16.28,2.27c0.28,0.01,0.52,0.1,0.76,0.24c0,0,0.01,0,0.01,0
			c0.03,0,0.03,0,0.03,0c5.16-1.1,10.42-2,15.79-2.71c0,0,0,0,0.01,0c-0.9-0.77-1.75-1.58-2.5-2.4c-4.21-4.58-6.46-10.31-7.05-16.83
			c-0.19-2.07,2.8-2.47,3.18-0.49c1.01,5.23,3.56,10.1,7.12,13.65c2.57,2.56,5.39,3.76,8.32,5.01c0.01,0,0.02,0,0.03,0
			c6.51-0.59,13.12-0.96,19.75-1.02c-0.14-0.2-0.28-0.41-0.41-0.61c-2.61-4.06-4.01-8.65-3.56-13.68c0.2-2.17,3.13-2.26,3.06,0
			c-0.13,4.04,1.01,8.09,3.54,11.03c1.29,1.5,2.83,2.38,4.36,3.27c1.61-0.77,3.22-1.53,4.74-2.62c2.87-2.06,5.16-4.55,7.01-7.77
			c1-1.74,3.46-0.13,2.47,1.63c-1.75,3.11-4.14,6.43-6.97,9.01h0c4.96,0.23,9.9,0.62,14.79,1.16c0.01,0,0.01,0,0.02,0
			c7.97-2.02,15.03-5.6,21.57-13.43c1.54-1.84,3.83,0.86,2.42,2.74c-3.48,4.65-8.13,8.96-13.33,12.16c5.43,0.87,10.77,1.92,16,3.16
			c0.01,0,0.02,0.01,0.03,0.01c3.66-0.85,7.09-1.4,10.54-3.76c4.19-2.86,7.35-6.95,9.33-12c0.77-1.97,3.73-0.53,3.06,1.46
			c-2.15,6.43-6.97,13.26-12.87,16.97c0,0,0.01,0,0.01,0c2.27,0.68,4.51,1.38,6.71,2.11c1.47,0.48,2.84,1.24,4.07,2.2
			c13.82-0.56,29.45-9.02,33.14-25.29c4.44-19.63-12.87-35.05-28.21-37.25c-2.39-0.37-3.87-2.76-2.72-5.36
			c13.99-31.47-20.68-50.62-43.1-39.08c-1.95,0.99-3.92,0.17-4.66-2.17c-8.7-27.38-47.91-27.35-56.64,0
			c-0.72,2.34-2.69,3.16-4.64,2.14c-22.47-11.56-57.11,7.81-43.1,39.11c1.17,2.62-0.32,5.02-2.72,5.36
			c-15.41,2.26-32.45,17.65-28.16,37.22c3.59,16.3,19.33,24.87,33.12,25.29c1.22-0.96,2.57-1.69,4.04-2.17
			C86.27,192.91,88.46,192.24,90.69,191.59z"/>
		<path class="st1" d="M221.56,201.77c-20.5-6.88-43.89-10.52-67.66-10.52c-23.77,0-47.16,3.64-67.66,10.52
			c-3.14,1.04-5.31,4.37-5.31,8.12v19.74c0,1.64,0.6,3.13,1.67,4.2c1.07,1.1,2.47,1.61,3.92,1.41c21.3-2.68,43.97-4.06,67.39-4.06
			c23.42,0,46.09,1.38,67.39,4.06c1.45,0.2,2.84-0.31,3.92-1.41c1.07-1.07,1.67-2.57,1.67-4.2v-19.74
			C226.87,206.14,224.67,202.81,221.56,201.77z"/>
		<path class="st1" d="M221.56,201.77c-20.5-6.88-43.89-10.52-67.66-10.52c-23.77,0-47.16,3.64-67.66,10.52
			c-3.14,1.04-5.31,4.37-5.31,8.12v19.74c0,1.64,0.6,3.13,1.67,4.2c1.07,1.1,2.47,1.61,3.92,1.41c21.3-2.68,43.97-4.06,67.39-4.06
			c23.42,0,46.09,1.38,67.39,4.06c1.45,0.2,2.84-0.31,3.92-1.41c1.07-1.07,1.67-2.57,1.67-4.2v-19.74
			C226.87,206.14,224.67,202.81,221.56,201.77z"/>
		<path class="st0" d="M225.2,201.03c-2.92-0.28-2.99-5.3,0-5.19c0.85,0.03,1.67,0.03,2.54,0c-1.22-0.96-2.59-1.72-4.07-2.2
			c-2.19-0.73-4.44-1.44-6.71-2.11c0,0-0.01,0-0.01,0c-3.8,2.39-8.04,3.49-12.33,2.36c-1.97-0.52-1.93-3.92,0-4.46
			c0.77-0.21,1.52-0.4,2.27-0.57c-0.01,0-0.02-0.01-0.03-0.01c-5.23-1.24-10.57-2.28-16-3.16c-7.45,4.58-16.03,6.85-23.95,4.36
			c-1.89-0.59-1.3-3.4,0.43-3.61c4.55-0.56,8.82-1.19,12.85-2.22c-0.01,0-0.01,0-0.02,0c-4.89-0.54-9.83-0.93-14.79-1.16h0
			c-1.11,1.01-2.28,1.91-3.5,2.64c0.4,1.04-0.14,2.54-1.16,2.75c-1.53,0.32-3.04-0.04-4.45-0.79c-0.18,0.02-0.37,0.05-0.55,0.06
			c-0.82,0.04-1.36-0.67-1.48-1.47c-1.19-1-2.25-2.22-3.1-3.45c-6.63,0.06-13.24,0.42-19.75,1.02c-0.01,0-0.02,0-0.03,0
			c1.21,0.51,2.44,1.04,3.68,1.67c1.43,0.73,1.08,3.58-0.45,3.87c-4.25,0.81-8.75-1.45-12.3-4.46c0,0,0,0-0.01,0
			c-5.36,0.7-10.62,1.61-15.79,2.71c0,0,0,0-0.03,0c0,0-0.01,0-0.01,0c1.28,0.73,1.79,3.06,0.23,3.87c-5.29,2.75-10.9,2.4-16,0.11
			c-2.24,0.65-4.42,1.32-6.58,2.05c-1.47,0.48-2.82,1.21-4.04,2.17c0.85,0.03,1.7,0.03,2.52,0c3.02-0.11,2.92,4.96,0,5.22
			c-2.27,0.23-4.59,0.23-6.93,0c-1.42,2.62-2.22,5.67-2.22,8.85v19.74c0,4,1.52,7.84,4.16,10.52c2.29,2.31,5.29,3.58,8.33,3.58
			c0.47,0,0.92,0,1.4-0.08c21.02-2.65,43.42-4,66.56-4c23.14,0,45.54,1.35,66.56,4c3.54,0.48,7.08-0.82,9.73-3.5
			c2.64-2.68,4.16-6.51,4.16-10.52v-19.74c0-3.16-0.8-6.2-2.19-8.8C229.81,201.29,227.47,201.26,225.2,201.03z M226.87,229.63
			c0,1.64-0.6,3.13-1.67,4.2c-1.07,1.1-2.47,1.61-3.92,1.41c-21.3-2.68-43.97-4.06-67.39-4.06c-23.42,0-46.09,1.38-67.39,4.06
			c-1.45,0.2-2.84-0.31-3.92-1.41c-1.07-1.07-1.67-2.57-1.67-4.2v-19.74c0-3.75,2.17-7.08,5.31-8.12
			c20.5-6.88,43.89-10.52,67.66-10.52c23.77,0,47.16,3.64,67.66,10.52c3.12,1.04,5.31,4.37,5.31,8.12V229.63z"/>
		<path class="st0" d="M237.14,127.1c11.7-33.98-23.24-56.65-50.15-45.94c-12.49-29.35-53.7-29.35-66.19,0
			C93.89,70.5,59.07,93.12,70.62,127.1c-16.59,4.4-32.57,19.74-30.43,40.77c2.05,19.96,18.95,31.72,35.46,33.16
			c1.1-2.06,2.62-3.86,4.41-5.22c-13.79-0.42-29.53-9-33.12-25.29c-4.29-19.57,12.74-34.97,28.16-37.22
			c2.39-0.34,3.89-2.74,2.72-5.36c-14.02-31.3,20.63-50.67,43.1-39.11c1.95,1.02,3.92,0.2,4.64-2.14c8.73-27.35,47.93-27.38,56.64,0
			c0.75,2.34,2.72,3.16,4.66,2.17c22.42-11.53,57.09,7.61,43.1,39.08c-1.15,2.59,0.32,4.99,2.72,5.36
			c15.34,2.2,32.65,17.62,28.21,37.25c-3.69,16.27-19.33,24.73-33.14,25.29c1.8,1.35,3.32,3.16,4.41,5.25
			c16.49-1.38,33.42-13.28,35.34-33.22C269.56,146.81,253.78,131.52,237.14,127.1z"/>
		<path class="st0" d="M89.44,185.11c-5.22-2.65-8.96-6.98-11.68-12.63c-1.05-2.18-3.72-0.26-2.88,1.9
			c2.9,7.42,8.88,14.11,15.81,17.21c0.01,0,0.02-0.01,0.03-0.01c5.11-1.52,10.37-2.85,15.75-3.97c-0.23-0.13-0.48-0.23-0.76-0.24
			C99.95,187.24,94.91,187.88,89.44,185.11z"/>
		<path class="st0" d="M115.93,165.18c-0.38-1.98-3.36-1.58-3.18,0.49c0.59,6.52,2.84,12.25,7.05,16.83c0.76,0.83,1.6,1.64,2.5,2.4
			c3.01-0.42,6.01-0.76,9.07-1.07c-2.93-1.25-5.75-2.45-8.32-5.01C119.49,175.28,116.93,170.41,115.93,165.18z"/>
		<path class="st0" d="M229.83,174.56c0.67-1.99-2.29-3.42-3.06-1.46c-1.98,5.05-5.14,9.14-9.33,12c-3.45,2.36-6.88,2.91-10.54,3.76
			c3.4,0.81,6.78,1.71,10.06,2.67C222.86,187.82,227.68,180.99,229.83,174.56z"/>
		<path class="st0" d="M204.2,173.54c1.41-1.88-0.89-4.58-2.42-2.74c-6.54,7.83-13.6,11.41-21.57,13.43
			c3.58,0.42,7.14,0.9,10.65,1.46c0,0,0.01,0,0.01,0C196.06,182.5,200.72,178.19,204.2,173.54z"/>
		<path class="st0" d="M153.89,182.79c1.39,0,2.78,0,4.19,0.06c0.02-0.01,0.04-0.02,0.05-0.03c-1.53-0.89-3.07-1.77-4.36-3.27
			c-2.53-2.93-3.67-6.99-3.54-11.03c0.07-2.26-2.86-2.17-3.06,0c-0.46,5.04,0.94,9.63,3.56,13.68c0.13,0.2,0.27,0.41,0.41,0.61
			c0,0,0,0,0,0C152.07,182.79,152.97,182.79,153.89,182.79z"/>
		<path class="st0" d="M172.36,174.06c0.99-1.77-1.47-3.37-2.47-1.63c-1.86,3.22-4.14,5.71-7.01,7.77
			c-1.51,1.09-3.13,1.85-4.74,2.62c0.02,0.01,0.03,0.02,0.05,0.03c2.41,0.03,4.79,0.11,7.2,0.22
			C168.22,180.48,170.62,177.17,172.36,174.06z"/>
		<g>
			<defs>
				<path id="SVGID_1_" d="M227.41,229.81c0,1.64-0.6,3.13-1.67,4.2c-1.07,1.1-2.47,1.61-3.92,1.41
					c-21.3-2.68-43.97-4.06-67.39-4.06c-23.42,0-46.09,1.38-67.39,4.06c-1.45,0.2-2.84-0.31-3.92-1.41
					c-1.07-1.07-1.67-2.57-1.67-4.2v-19.74c0-3.75,2.17-7.08,5.31-8.12c20.5-6.88,43.89-10.52,67.66-10.52
					c23.77,0,47.16,3.64,67.66,10.52c3.12,1.04,5.31,4.37,5.31,8.12V229.81z"/>
			</defs>
			<clipPath id="SVGID_2_">
				<use xlink:href="#SVGID_1_"  style="overflow:visible;"/>
			</clipPath>
			<rect x="79.49" y="182.37" class="st2" width="49.42" height="62.73"/>
			<rect x="128.91" y="182.37" class="st3" width="49.42" height="62.73"/>
			<rect x="178.33" y="182.37" class="st4" width="49.42" height="62.73"/>
			<use xlink:href="#SVGID_1_"  style="overflow:visible;fill:none;stroke:#FFFFFF;stroke-miterlimit:10;"/>
		</g>
	</g>
	<g>
		<path class="st0" d="M380.42,57.54v198.04c0,6.49-3.25,9.74-9.74,9.74h-18.37c-6.79,0-10.18-3.24-10.18-9.74V57.54
			c0-2.95,0.92-5.31,2.77-7.08c1.84-1.77,4.17-2.66,6.97-2.66h18.14c3.1,0,5.6,0.92,7.52,2.77
			C379.46,52.41,380.42,54.74,380.42,57.54z"/>
		<path class="st0" d="M403.93,80.33V53.99c0-3.83,1.92-5.75,5.75-5.75h160.65c3.69,0,5.53,1.92,5.53,5.75v26.33
			c0,1.48-0.48,2.95-1.44,4.42c-0.96,1.48-2.32,2.21-4.09,2.21h-61.07v170.61c0,5.17-2.73,7.74-8.19,7.74h-23.45
			c-5.02,0-7.52-2.58-7.52-7.74V86.96h-60.41C405.85,86.96,403.93,84.75,403.93,80.33z"/>
		<path class="st0" d="M636.38,173.04h83.42c2.21,0,4.06,0.74,5.53,2.22c1.47,1.48,2.21,3.54,2.21,6.2v23.23
			c0,2.21-0.66,4.06-1.99,5.53c-1.33,1.48-3.25,2.21-5.75,2.21h-83.42v45.14c0,2.51-0.74,4.43-2.21,5.75
			c-1.48,1.33-3.32,1.99-5.53,1.99h-22.35c-2.51,0-4.5-0.74-5.98-2.21c-1.48-1.47-2.21-3.32-2.21-5.53V55.99
			c0-5.16,2.58-7.74,7.74-7.74h138.52c2.21,0,4.02,0.74,5.42,2.21c1.4,1.48,2.1,3.32,2.1,5.53v23.23c0,2.51-0.7,4.5-2.1,5.98
			c-1.4,1.48-3.21,2.21-5.42,2.21H636.38V173.04z"/>
		<path class="st0" d="M761.95,157.11c0-15.34,2.91-29.98,8.74-43.92c5.83-13.94,13.98-26.15,24.45-36.62
			c10.47-10.47,22.57-18.62,36.29-24.45c13.72-5.83,28.32-8.74,43.81-8.74c15.34,0,29.98,2.95,43.92,8.85
			c13.94,5.9,26.15,14.02,36.62,24.34c10.32,10.47,18.44,22.68,24.34,36.62c5.9,13.94,8.85,28.58,8.85,43.92
			c0,15.49-2.91,30.13-8.74,43.92c-5.83,13.8-13.98,25.93-24.45,36.4c-10.48,10.48-22.68,18.63-36.62,24.45
			c-13.94,5.82-28.58,8.74-43.92,8.74c-15.49,0-30.13-2.92-43.92-8.74c-13.8-5.82-25.85-13.97-36.18-24.45
			c-10.48-10.32-18.62-22.42-24.45-36.29C764.86,187.28,761.95,172.6,761.95,157.11z M797.8,157.11c0,10.48,1.99,20.43,5.98,29.87
			c3.98,9.44,9.59,17.78,16.82,25c7.23,7.23,15.52,12.87,24.89,16.93c9.37,4.06,19.29,6.09,29.76,6.09
			c10.47,0,20.43-2.03,29.87-6.09c9.44-4.06,17.85-9.7,25.23-16.93c7.22-7.23,12.87-15.56,16.93-25c4.06-9.44,6.09-19.4,6.09-29.87
			c0-10.47-2.03-20.43-6.09-29.87c-4.06-9.44-9.7-17.85-16.93-25.22c-7.38-7.23-15.79-12.87-25.23-16.93
			c-9.44-4.06-19.4-6.08-29.87-6.08c-10.48,0-20.4,2.03-29.76,6.08c-9.37,4.06-17.67,9.7-24.89,16.93
			c-7.23,7.38-12.83,15.79-16.82,25.22C799.79,136.68,797.8,146.64,797.8,157.11z"/>
		<path class="st0" d="M1000.19,157.11c0-15.34,2.91-29.98,8.74-43.92c5.83-13.94,13.97-26.15,24.45-36.62
			c10.47-10.47,22.57-18.62,36.29-24.45s28.32-8.74,43.81-8.74c15.34,0,29.98,2.95,43.92,8.85c13.94,5.9,26.15,14.02,36.62,24.34
			c10.32,10.47,18.44,22.68,24.34,36.62c5.9,13.94,8.85,28.58,8.85,43.92c0,15.49-2.91,30.13-8.74,43.92
			c-5.83,13.8-13.98,25.93-24.45,36.4c-10.48,10.48-22.68,18.63-36.62,24.45c-13.94,5.82-28.58,8.74-43.92,8.74
			c-15.49,0-30.13-2.92-43.92-8.74c-13.8-5.82-25.86-13.97-36.18-24.45c-10.48-10.32-18.62-22.42-24.45-36.29
			C1003.1,187.28,1000.19,172.6,1000.19,157.11z M1036.04,157.11c0,10.48,1.99,20.43,5.97,29.87c3.99,9.44,9.59,17.78,16.82,25
			c7.23,7.23,15.53,12.87,24.89,16.93c9.37,4.06,19.29,6.09,29.76,6.09c10.47,0,20.43-2.03,29.87-6.09
			c9.44-4.06,17.85-9.7,25.23-16.93c7.23-7.23,12.87-15.56,16.93-25c4.06-9.44,6.09-19.4,6.09-29.87c0-10.47-2.03-20.43-6.09-29.87
			c-4.06-9.44-9.7-17.85-16.93-25.22c-7.38-7.23-15.79-12.87-25.23-16.93c-9.44-4.06-19.4-6.08-29.87-6.08
			c-10.48,0-20.4,2.03-29.76,6.08c-9.37,4.06-17.67,9.7-24.89,16.93c-7.23,7.38-12.83,15.79-16.82,25.22
			C1038.03,136.68,1036.04,146.64,1036.04,157.11z"/>
		<path class="st0" d="M1264.53,47.8h71.69c14.75,0.3,28.54,3.25,41.38,8.85c12.84,5.61,24.12,13.35,33.86,23.23
			c9.74,9.89,17.26,21.39,22.57,34.52c5.31,13.13,7.97,27.07,7.97,41.82c0,14.46-2.62,28.29-7.86,41.49
			c-5.24,13.2-12.58,24.89-22.02,35.07c-9.59,10.18-20.8,18.14-33.64,23.9c-12.83,5.75-26.48,8.63-40.93,8.63h-74.57
			c-4.13-0.15-6.2-2.73-6.2-7.74V55.54C1256.79,50.38,1259.37,47.8,1264.53,47.8z M1296.18,86.96v138.96h41.38
			c9.88,0,18.88-1.69,26.99-5.09c8.11-3.39,15.12-8.26,21.02-14.6c5.75-6.2,10.18-13.57,13.28-22.13c3.1-8.55,4.65-17.85,4.65-27.88
			c0-9.59-1.63-18.62-4.87-27.11c-3.25-8.48-7.75-15.89-13.5-22.24c-6.05-6.34-13.2-11.25-21.46-14.72
			c-8.26-3.46-17.41-5.2-27.44-5.2H1296.18z"/>
	</g>
</g>
</svg>
